<?xml version="1.0" encoding="UTF-8"?>
<svg id="_图层_1" data-name="图层 1" xmlns="http://www.w3.org/2000/svg" viewBox="0 0 949 256">
  <defs>
    <style>
      .cls-1 {
        fill: #036eb7;
      }

      .cls-2 {
        fill: #ff8000;
      }

      .cls-3 {
        font-family: LXGWWenKai-Regular, 'LXGW WenKai';
        font-size: 119.06px;
      }
    </style>
  </defs>
  <g>
    <path class="cls-1" d="M127.13,176.51c4.83-1.5,4.78-1.64,4.2-5.92-1.57-11.6-2.99-23.22-4.48-34.83-1.49-11.61-3.13-23.21-4.46-34.84-2.76-24.24-5.39-48.49-8.01-72.74-.85-7.88,1.13-11.31,9.25-13.92,6.57-2.12,13.43-4.15,20.25-4.49,10.28-.51,20.26,1.98,29.36,7.15,3.28,1.86,4.91,4.58,4.5,8.51-1.53,14.8-2.82,29.64-4.49,44.42-2.24,19.77-4.69,39.52-7.17,59.27-1.79,14.23-3.64,28.46-5.74,42.65-.54,3.62,1.91,3.7,4.4,4.98,.58-4.32,1.15-8.36,1.67-12.4,2.45-18.95,5-37.89,7.29-56.85,2.67-22.12,5.11-44.27,7.6-66.42,.49-4.37,.8-8.77,1.11-13.16,.11-1.52,.63-2.22,2.28-2.04,9.1,.96,17.92,2.88,25.97,7.45,4.98,2.83,9.41,6.38,12.02,11.56,1.22,2.41,2.04,5.35,1.97,8.02-.22,8.83-1.86,17.52-4.64,25.87-6.86,20.63-13.71,41.27-21.19,61.67-5.69,15.5-12.18,30.72-18.7,45.9-1.57,3.67-.57,6.08,1.54,9.17,2.03-4.71,4.08-9.06,5.81-13.54,9.75-25.27,19.61-50.5,29.04-75.89,5.09-13.7,8.93-27.82,11.67-42.2,.7-3.68,.96-7.45,1.46-11.46,8.94,2.96,16.57,7.66,22.39,15.05,6.98,8.88,7.8,19,5.61,29.6-3.43,16.57-11.37,31.19-20.17,45.37-14.91,24.01-32.43,46.02-51.63,66.72-.78,.84-1.38,1.92-2.31,2.51-.92,.58-2.15,.9-3.23,.87-.36-.01-.95-1.47-.97-2.27-.22-11.03-4.58-20.06-13.42-26.58-10.62-7.83-22.34-9.03-34.2-3.39-11.96,5.69-18.2,15.63-19.04,28.91-.07,1.17-.65,2.3-.99,3.45-1.29-.56-2.92-.79-3.81-1.73-20.71-21.96-39.41-45.49-55.04-71.37-6.93-11.47-13.14-23.31-16.91-36.27-2.31-7.94-3.76-15.99-1.7-24.22,2.33-9.32,8.29-16.01,16.22-21,3.66-2.31,7.66-4.08,11.85-6.28,.28,1.61,.54,2.54,.59,3.48,.75,12.32,3.87,24.19,7.74,35.78,6.63,19.87,13.6,39.63,20.98,59.23,5.55,14.73,11.97,29.13,18.02,43.67,.17,.4,.39,.78,.72,1.42,1.94-2.79,3.17-5.05,1.62-8.65-12.27-28.54-23.79-57.4-33.67-86.87-4.25-12.69-8.22-25.48-10.41-38.73-.33-2-.48-4.02-.7-6.03-.6-5.6,1.2-10.34,4.98-14.49,5.66-6.22,12.83-9.85,20.76-12,4.49-1.21,9.15-1.76,13.73-2.64,2.02-.39,2.71,.33,2.93,2.43,1.94,19.01,3.92,38.02,6.05,57.01,1.72,15.31,3.62,30.61,5.53,45.9,1.42,11.36,2.97,22.69,4.46,34.04,.48,3.65,.97,7.3,1.49,11.18Z"/>
    <path class="cls-1" d="M163.4,246.26c-17.97,0-35.95,.03-53.92-.01-13.01-.03-26.04,.14-39.04-.3-13.27-.44-25.69-4.34-36.89-11.53-5.53-3.55-10.83-7.49-15-12.72-1.82-2.29-2.99-4.58-1.63-7.49,1.32-2.8,3.71-3.52,6.58-3.37,1.32,.07,2.65,.09,3.96,0,7.25-.49,14.32,.64,21.43,1.93,6.04,1.1,12.17,1.78,18.3,2.26,40.1,3.16,80.26,3.17,120.43,2.08,11-.3,22.03-.54,32.98-1.55,10.21-.95,20.29-3.22,30.5-4.28,6.62-.69,13.38-.58,20.03-.17,4.24,.26,5.83,5.87,2.98,9.57-4.28,5.56-9.55,10.08-15.45,13.83-13.02,8.26-27.31,11.87-42.67,11.77-17.53-.11-35.06-.03-52.59-.03Z"/>
    <path class="cls-1" d="M102.44,212.81c-4.6-.46-9.55-.23-14.03-1.56-8.71-2.58-16.52-7.22-24.3-11.96-15.82-9.63-28.88-22.11-39.19-37.37-4.01-5.93-7.33-12.43-10.24-18.99-5.71-12.85-3.5-24.99,4.77-36.06,2.71-3.63,5.99-6.84,9.48-10.78,.59,1.6,1.01,2.42,1.2,3.29,2.58,12.09,7.67,23.19,13.48,33.99,9.7,18.03,21.56,34.61,34.34,50.54,6.04,7.53,12.41,14.8,18.65,22.17,1.85,2.18,3.75,4.32,5.84,6.72Z"/>
    <path class="cls-1" d="M262.82,96.71c13.87,11.42,22.22,27.71,14.68,46.06-7.29,17.75-18.94,32.22-33.29,44.65-11.94,10.35-25.23,18.61-40.24,23.68-4.21,1.42-8.97,1.22-13.47,1.76-.16-.28-.31-.56-.47-.84,1.16-1.32,2.32-2.64,3.49-3.95,20.43-22.79,39.34-46.71,54.22-73.57,6.15-11.11,11.45-22.59,14.1-35.13,.18-.83,.58-1.62,.97-2.66Z"/>
    <path class="cls-2" d="M145.83,212.82c-8.1,0-16.2,.05-24.29-.03-3.4-.03-3.49-.26-3.51-3.95-.07-12.93,9.23-24.21,22.18-26.89,17.31-3.58,33.54,9.76,33.3,27.28-.03,2.45-.58,3.65-3.39,3.6-8.09-.16-16.19-.06-24.29-.06,0,.01,0,.02,0,.04Z"/>
  </g>
  <text class="cls-3" transform="translate(299.99 176.77) scale(1.36 1)"><tspan x="0" y="0">浅海拾贝</tspan></text>
  <text/>
</svg>